<?xml version="1.0" encoding="utf-8"?>
<!-- Generator: Adobe Illustrator 22.0.0, SVG Export Plug-In . SVG Version: 6.00 Build 0)  -->
<svg version="1.1" id="Layer_1" xmlns="http://www.w3.org/2000/svg" xmlns:xlink="http://www.w3.org/1999/xlink" x="0px" y="0px"
	 viewBox="0 0 330 330" style="enable-background:new 0 0 330 330;" xml:space="preserve">
<style type="text/css">
	.st0{fill:#FFFFFF;}
</style>
<g id="XMLID_340_">
	<path id="XMLID_341_" class="st0" d="M237.1,265H315c5.4,0,10.5-2.9,13.1-7.7c2.6-4.8,2.5-10.6-0.3-15.2l-105-170
		C220,67.7,215.2,65,210,65c-5.2,0-10,2.7-12.8,7.1l-39.5,64L233,258.4L237.1,265z"/>
	<path id="XMLID_348_" class="st0" d="M15,265h160c0,0,0,0,0,0h26.8l-94.3-153.2c-2.8-4.2-7.5-6.8-12.6-6.8c-5.2,0-10,2.7-12.8,7.1
		l-80,130c-2.8,4.6-3,10.4-0.3,15.2C4.6,262.1,9.6,265,15,265z"/>
</g>
</svg>
